<?xml version="1.0" standalone="no"?>
<!DOCTYPE svg PUBLIC "-//W3C//DTD SVG 20010904//EN"
 "http://www.w3.org/TR/2001/REC-SVG-20010904/DTD/svg10.dtd">
<svg version="1.0" xmlns="http://www.w3.org/2000/svg"
 width="1591.000000pt" height="1600.000000pt" viewBox="0 0 1591.000000 1600.000000"
 preserveAspectRatio="xMidYMid meet">
<metadata>
Created by potrace 1.16, written by Peter Selinger 2001-2019
</metadata>
<g transform="translate(0.000000,1600.000000) scale(0.100000,-0.100000)"
fill="#000000" stroke="none">
<path d="M1910 11195 c0 -33 -2 -35 -35 -35 -24 0 -35 -5 -35 -15 0 -10 -11
-15 -35 -15 -33 0 -35 -2 -35 -35 0 -28 -4 -35 -19 -35 -54 0 -51 25 -51 -471
0 -401 -2 -459 -15 -459 -8 0 -15 -7 -15 -15 0 -8 7 -15 15 -15 12 0 15 -18
15 -105 0 -89 -2 -105 -16 -105 -9 0 -18 -9 -21 -20 -4 -15 -14 -20 -40 -20
-19 0 -32 -4 -29 -9 10 -16 -19 -31 -50 -25 -39 7 -94 -4 -94 -19 0 -8 23 -13
70 -14 63 -1 70 1 70 18 0 15 7 19 35 19 24 0 35 5 35 15 0 8 9 15 20 15 19 0
20 -7 22 -247 1 -137 3 -218 5 -180 4 65 23 97 23 38 0 -16 7 -36 15 -45 8 -8
15 -24 15 -35 0 -18 6 -21 40 -21 39 0 40 1 40 35 l0 35 90 0 90 0 0 -35 0
-35 85 0 85 0 0 35 0 35 -50 0 c-38 0 -50 4 -50 15 0 10 11 15 35 15 34 0 35
1 35 40 0 29 4 40 15 40 8 0 15 7 15 16 0 12 9 14 38 12 34 -3 37 -6 40 -35 3
-32 2 -33 -32 -33 -34 0 -36 -2 -36 -35 l0 -35 105 0 105 0 0 -35 0 -35 84 0
85 0 3 33 3 32 88 3 87 3 0 -36 0 -35 75 0 75 0 0 245 c0 211 2 245 15 245 8
0 15 -7 15 -15 0 -10 11 -15 35 -15 24 0 35 5 35 15 0 10 -11 15 -35 15 -28 0
-35 4 -35 20 0 11 -7 20 -15 20 -12 0 -15 18 -15 105 0 87 3 105 15 105 8 0
15 -7 15 -15 0 -8 7 -15 15 -15 8 0 15 7 15 15 0 8 -7 15 -15 15 -8 0 -15 7
-15 15 0 8 -7 15 -15 15 -13 0 -15 61 -17 463 l-3 462 -37 3 c-36 3 -38 5 -38
38 0 32 -2 34 -35 34 -24 0 -35 5 -35 15 0 10 -11 15 -35 15 -33 0 -35 2 -35
35 l0 35 -390 0 -390 0 0 -35z m500 -30 c0 -23 -5 -35 -14 -35 -9 0 -17 -15
-21 -40 -4 -24 -12 -40 -21 -40 -14 0 -27 36 -22 61 2 11 -13 15 -69 17 -58 2
-73 6 -73 18 0 9 9 18 20 21 11 3 20 12 20 19 0 11 20 14 90 14 l90 0 0 -35z
m248 -1 c2 -22 9 -34 23 -37 10 -3 19 -12 19 -21 0 -13 -11 -16 -55 -16 l-55
0 0 -36 c0 -35 -1 -35 -37 -32 -41 3 -57 26 -24 35 16 4 21 13 21 39 0 24 5
34 15 34 10 0 15 10 15 28 0 37 8 44 45 40 26 -3 30 -8 33 -34z m-711 -84 c3
-11 14 -20 24 -20 12 0 19 -7 19 -20 0 -11 7 -20 15 -20 8 0 15 -7 15 -14 0
-11 15 -16 53 -18 l52 -3 3 -52 c3 -48 1 -53 -17 -53 -12 0 -21 7 -21 15 0 10
-11 15 -35 15 -32 0 -35 -2 -35 -30 0 -23 -4 -30 -20 -30 -17 0 -20 7 -20 50
l0 50 -55 0 c-44 0 -55 3 -55 16 0 9 9 18 20 21 35 9 24 33 -15 33 -28 0 -35
4 -35 20 0 16 7 20 34 20 25 0 35 5 39 20 3 11 10 20 17 20 7 0 14 -9 17 -20z
m463 -160 l0 -40 -50 0 c-38 0 -50 -4 -50 -15 0 -12 -13 -15 -60 -15 l-60 0 0
35 c0 28 4 35 20 35 11 0 20 7 20 15 0 11 18 15 83 18 45 1 85 4 90 5 4 1 7
-16 7 -38z m350 -130 c0 -16 -7 -20 -30 -20 -20 0 -30 -5 -30 -15 0 -8 7 -15
15 -15 8 0 15 -9 15 -20 0 -17 -7 -20 -52 -20 l-53 0 -1 -70 -1 -70 50 0 c40
0 50 3 54 20 3 11 12 20 19 20 8 0 14 7 14 15 0 8 9 15 20 15 14 0 20 7 20 21
0 14 5 19 18 17 16 -3 17 -32 20 -411 l2 -407 -535 0 -535 0 0 410 c0 403 0
410 20 410 13 0 20 -7 20 -20 0 -11 7 -20 15 -20 8 0 15 -7 15 -15 0 -8 9 -15
20 -15 13 0 20 -7 20 -20 0 -18 7 -20 56 -20 l55 0 -3 -52 -3 -53 -37 -3 -38
-3 0 -64 0 -64 38 -3 c35 -3 37 -5 40 -40 l3 -38 64 0 64 0 3 38 c3 34 6 37
36 40 l32 3 0 64 0 64 -32 3 c-30 3 -33 6 -33 38 l0 35 178 3 177 2 0 -40 c0
-39 -1 -40 -35 -40 l-35 0 0 -65 0 -65 35 0 c34 0 35 -1 35 -40 l0 -40 70 0
70 0 0 40 c0 39 1 40 35 40 l35 0 0 65 0 65 -35 0 -35 0 0 54 c0 45 -3 54 -20
59 -17 4 -20 14 -20 56 0 50 -1 51 -30 51 -23 0 -30 -4 -30 -20 0 -13 -7 -20
-20 -20 -18 0 -20 7 -20 55 l0 55 49 0 c40 0 50 3 54 20 3 11 12 20 21 20 9 0
16 7 16 15 0 12 14 15 70 15 63 0 70 -2 70 -20z m-417 -90 c26 0 37 -4 37 -15
0 -8 7 -15 15 -15 10 0 15 -11 15 -35 0 -33 2 -35 35 -35 28 0 35 -4 35 -20 0
-19 -7 -20 -90 -20 l-90 0 0 35 0 35 -55 0 -55 0 0 33 c0 45 7 50 65 43 28 -3
67 -6 88 -6z m-433 -1005 c0 -8 9 -15 20 -15 13 0 20 -7 20 -20 0 -11 6 -20
14 -20 7 0 16 -9 19 -20 4 -17 14 -20 56 -20 l51 0 0 -55 c0 -44 -3 -55 -16
-55 -9 0 -18 9 -21 21 -4 16 -12 19 -37 17 -18 -2 -30 -8 -28 -15 1 -8 -8 -13
-23 -13 -21 0 -25 5 -25 30 0 29 -2 30 -45 30 -51 0 -72 23 -42 45 21 15 22
35 2 35 -8 0 -15 7 -15 15 0 9 7 18 15 21 8 4 15 12 15 20 0 8 9 14 20 14 11
0 20 -7 20 -15z"/>
<path d="M2410 10135 l0 -35 -105 0 -105 0 0 -35 0 -35 105 0 105 0 0 35 c0
33 2 35 35 35 33 0 35 2 35 35 0 33 -2 35 -35 35 -33 0 -35 -2 -35 -35z"/>
<path d="M1350 10190 c0 -11 7 -20 15 -20 10 0 15 -11 15 -35 0 -24 -5 -35
-15 -35 -10 0 -15 -10 -15 -34 0 -25 -5 -35 -20 -39 -16 -4 -20 -14 -20 -51 0
-39 3 -46 20 -46 17 0 20 -7 20 -40 0 -29 4 -40 15 -40 8 0 15 -7 15 -15 0
-10 11 -15 35 -15 24 0 35 5 35 15 0 8 7 15 15 15 11 0 15 11 15 36 0 27 5 37
20 41 14 4 20 14 20 34 0 22 5 29 20 29 11 0 20 -7 20 -15 0 -8 7 -15 15 -15
10 0 15 11 15 35 0 28 4 35 20 35 11 0 20 7 20 15 0 8 -9 15 -20 15 -13 0 -20
7 -20 20 0 11 -7 20 -15 20 -8 0 -15 7 -15 15 0 8 -7 15 -16 15 -9 0 -18 9
-21 20 -3 11 -11 20 -18 20 -7 0 -15 9 -18 20 -4 17 -14 20 -71 20 -59 0 -66
-2 -66 -20z"/>
</g>
</svg>
