<?xml version="1.0" standalone="no"?>
<!DOCTYPE svg PUBLIC "-//W3C//DTD SVG 20010904//EN"
 "http://www.w3.org/TR/2001/REC-SVG-20010904/DTD/svg10.dtd">
<svg version="1.0" xmlns="http://www.w3.org/2000/svg"
 width="512.000000pt" height="511.000000pt" viewBox="0 0 512.000000 511.000000"
 preserveAspectRatio="xMidYMid meet">
<metadata>
Created by potrace 1.16, written by Peter Selinger 2001-2019
</metadata>
<g transform="translate(0.000000,511.000000) scale(0.100000,-0.100000)"
fill="#000000" stroke="none">
<path d="M1830 4880 l0 -80 -80 0 -80 0 0 -80 0 -80 -80 0 -80 0 0 -80 0 -80
-80 0 -80 0 0 -80 0 -80 -80 0 -80 0 0 -165 0 -164 -82 -3 -83 -3 0 -240 0
-240 82 -3 83 -3 -1 -284 0 -284 -37 -4 -37 -4 38 -1 c32 -2 37 -5 37 -26 0
-21 -5 -25 -37 -29 l-38 -4 37 -1 37 -2 0 -449 0 -450 -37 -4 -37 -4 38 -1
c32 -2 37 -5 37 -26 0 -21 -5 -25 -37 -29 l-38 -4 37 -1 37 -2 0 -563 c0 -309
0 -583 1 -609 0 -46 1 -48 29 -48 15 0 49 -3 74 -6 42 -6 46 -9 50 -38 4 -29
4 -29 5 7 l2 37 80 0 80 0 0 80 0 80 -80 0 -80 0 0 1176 0 1175 43 -3 42 -3 3
-77 3 -77 37 -3 37 -3 3 -77 3 -77 37 -3 c35 -3 37 -5 40 -40 3 -35 5 -37 40
-40 36 -3 37 -4 40 -45 l3 -43 279 0 279 0 3 43 c3 41 4 42 40 45 35 3 37 5
40 40 3 35 5 37 40 40 l37 3 3 77 3 77 37 3 37 3 3 77 3 77 83 3 82 3 0 -81 0
-80 40 0 40 0 0 -80 0 -80 40 0 40 0 0 -40 0 -40 40 0 40 0 0 -45 0 -45 279 0
280 0 3 43 c3 42 3 42 46 45 42 3 42 3 42 43 0 39 0 39 40 39 l40 0 0 80 0 80
40 0 40 0 0 80 0 80 40 0 40 0 0 -1175 0 -1175 -80 0 -80 0 0 -79 0 -79 153
-4 c83 -3 155 -2 159 1 3 3 9 641 12 1416 3 776 5 1411 6 1413 0 2 15 3 33 2
17 -1 53 -2 80 -1 l47 1 0 245 0 245 -80 0 -80 0 -2 163 -3 162 -82 3 -83 3 0
79 0 80 -80 0 -80 0 0 80 0 80 -80 0 -80 0 0 80 0 80 -80 0 -80 0 0 80 0 80
-735 0 -735 0 0 -80z m890 -370 l0 -40 40 0 c40 0 40 0 40 -40 0 -33 4 -41 24
-46 13 -3 32 -4 42 -2 15 2 20 -4 22 -34 3 -35 5 -37 40 -40 l37 -3 2 -157 2
-158 -39 0 c-40 0 -40 0 -40 -40 l0 -40 -45 0 -45 0 0 -40 0 -40 -40 0 -40 0
0 -40 0 -40 -155 0 -155 0 0 40 0 40 -40 0 -40 0 0 40 0 40 -40 0 -40 0 0 40
0 40 -40 0 -40 0 0 160 0 160 40 0 c40 0 40 0 40 40 0 31 3 38 15 34 8 -4 26
-3 40 0 21 5 25 12 25 46 0 40 0 40 40 40 l40 0 0 40 0 40 155 0 155 0 0 -40z
m-310 -1050 c0 -39 1 -40 35 -40 34 0 35 1 35 40 l0 39 80 0 80 -1 0 -33 0
-33 -75 -7 -75 -7 0 -39 0 -39 -570 0 -570 0 0 80 0 80 530 0 530 0 0 -40z
m1370 -40 l0 -80 -565 0 -565 0 0 39 c0 39 1 40 38 43 35 3 37 5 40 41 l3 37
525 0 524 0 0 -80z m-1450 -240 l0 -80 -45 0 -45 0 0 40 0 40 -40 0 -40 0 0
40 0 40 85 0 85 0 0 -80z m1210 0 l0 -80 -45 0 -45 0 0 40 0 40 -40 0 c-39 0
-40 1 -40 33 0 19 3 37 7 40 3 4 42 7 85 7 l78 0 0 -80z"/>
<path d="M2170 2450 l0 -80 75 0 75 0 0 80 0 80 -75 0 -75 0 0 -80z"/>
<path d="M2810 2450 l0 -80 -240 0 -240 0 0 -80 0 -80 240 0 240 0 0 80 0 80
80 0 80 0 0 80 0 80 -80 0 -80 0 0 -80z"/>
<path d="M2082 1723 l3 -158 38 -3 37 -3 0 160 0 161 -40 0 -41 0 3 -157z"/>
<path d="M2972 1723 l3 -158 38 -3 37 -3 0 160 0 161 -40 0 -41 0 3 -157z"/>
<path d="M3540 1680 l0 -40 -80 0 -80 0 0 -40 0 -41 78 3 77 3 3 37 c3 35 5
37 40 40 35 3 37 5 40 41 l3 37 -40 0 -41 0 0 -40z"/>
<path d="M1760 1520 l0 -40 160 0 160 0 0 40 0 40 -160 0 -160 0 0 -40z"/>
<path d="M3054 1546 c-3 -8 -4 -25 -2 -38 3 -23 4 -23 161 -26 l157 -3 0 41 0
40 -155 0 c-126 0 -157 -3 -161 -14z"/>
<path d="M1520 910 l0 -80 200 0 200 0 0 -80 c0 -44 3 -80 8 -81 4 0 94 -1
200 -2 l192 -2 0 83 0 82 -200 0 -200 0 0 80 0 80 -200 0 -200 0 0 -80z"/>
<path d="M2330 910 l0 -80 239 0 240 0 0 -76 c0 -42 2 -78 3 -79 6 -6 145 -9
271 -7 l127 2 0 80 0 80 -200 0 -200 0 0 80 0 80 -240 0 -240 0 0 -80z"/>
<path d="M3220 910 l0 -80 198 2 197 3 3 78 3 77 -201 0 -200 0 0 -80z"/>
</g>
</svg>
